
<global>
ampeg_release=0.85
master-volume=10
</global>

<group>
group_label=RR1
seq_length=2
seq_position=1

<region>
hikey=B3
hivel=127
lokey=A#3
lovel=87
pitch_keycenter=A#3
sample=Trumpet_muted_staccato_FF_A#3_RR1.opus
</region>

<region>
hikey=B4
hivel=127
lokey=A#4
lovel=87
offset=1916
pitch_keycenter=A#4
sample=Trumpet_muted_staccato_FF_A#4_RR1.opus
</region>

<region>
hikey=B5
hivel=127
lokey=A#5
lovel=87
pitch_keycenter=A#5
sample=Trumpet_muted_staccato_FF_A#5_RR1.opus
</region>

<region>
hivel=127
key=A4
lovel=87
sample=Trumpet_muted_staccato_FF_A4_RR1.opus
</region>

<region>
hivel=127
key=A5
lovel=87
offset=101
sample=Trumpet_muted_staccato_FF_A5_RR1.opus
</region>

<region>
hikey=C#4
hivel=127
lokey=C4
lovel=87
offset=148
sample=Trumpet_muted_staccato_FF_C4_RR1.opus
</region>

<region>
hikey=C#5
hivel=127
lokey=C5
lovel=87
offset=203
pitch_keycenter=C5
sample=Trumpet_muted_staccato_FF_C5_RR1.opus
</region>

<region>
hikey=F6
hivel=127
lokey=C6
lovel=87
pitch_keycenter=C6
sample=Trumpet_muted_staccato_FF_C6_RR1.opus
</region>

<region>
hikey=D#4
hivel=127
lokey=D4
lovel=87
offset=882
pitch_keycenter=D4
sample=Trumpet_muted_staccato_FF_D4_RR1.opus
</region>

<region>
hikey=D#5
hivel=127
lokey=D5
lovel=87
offset=192
pitch_keycenter=D5
sample=Trumpet_muted_staccato_FF_D5_RR1.opus
</region>

<region>
hivel=127
key=E4
lovel=87
sample=Trumpet_muted_staccato_FF_E4_RR1.opus
</region>

<region>
hivel=127
key=E5
lovel=87
offset=201
sample=Trumpet_muted_staccato_FF_E5_RR1.opus
</region>

<region>
hikey=F#4
hivel=127
lokey=F4
lovel=87
pitch_keycenter=F4
sample=Trumpet_muted_staccato_FF_F4_RR1.opus
</region>

<region>
hikey=F#5
hivel=127
lokey=F5
lovel=87
pitch_keycenter=F5
sample=Trumpet_muted_staccato_FF_F5_RR1.opus
</region>

<region>
hikey=A3
hivel=127
lokey=G#3
lovel=87
offset=457
pitch_keycenter=G#3
sample=Trumpet_muted_staccato_FF_G#3_RR1.opus
</region>

<region>
hikey=G#4
hivel=127
lokey=G4
lovel=87
offset=2037
pitch_keycenter=G4
sample=Trumpet_muted_staccato_FF_G4_RR1.opus
</region>

<region>
hikey=G#5
hivel=127
lokey=G5
lovel=87
pitch_keycenter=G5
sample=Trumpet_muted_staccato_FF_G5_RR1.opus
</region>

<region>
hikey=B3
hivel=86
lokey=A#3
lovel=43
offset=2274
pitch_keycenter=A#3
sample=Trumpet_muted_staccato_MF_A#3_RR1.opus
</region>

<region>
hikey=B4
hivel=86
lokey=A#4
lovel=43
offset=4709
pitch_keycenter=A#4
sample=Trumpet_muted_staccato_MF_A#4_RR1.opus
</region>

<region>
hikey=B5
hivel=86
lokey=A#5
lovel=43
offset=123
pitch_keycenter=A#5
sample=Trumpet_muted_staccato_MF_A#5_RR1.opus
</region>

<region>
hivel=86
key=A4
lovel=43
offset=2599
sample=Trumpet_muted_staccato_MF_A4_RR1.opus
</region>

<region>
hivel=86
key=A5
lovel=43
offset=4251
sample=Trumpet_muted_staccato_MF_A5_RR1.opus
</region>

<region>
hikey=C#4
hivel=86
lokey=C4
lovel=43
sample=Trumpet_muted_staccato_MF_C4_RR1.opus
</region>

<region>
hikey=C#5
hivel=86
lokey=C5
lovel=43
offset=2771
pitch_keycenter=C5
sample=Trumpet_muted_staccato_MF_C5_RR1.opus
</region>

<region>
hikey=F6
hivel=86
lokey=C6
lovel=43
offset=2547
pitch_keycenter=C6
sample=Trumpet_muted_staccato_MF_C6_RR1.opus
</region>

<region>
hikey=D#4
hivel=86
lokey=D4
lovel=43
offset=1693
pitch_keycenter=D4
sample=Trumpet_muted_staccato_MF_D4_RR1.opus
</region>

<region>
hikey=D#5
hivel=86
lokey=D5
lovel=43
offset=395
pitch_keycenter=D5
sample=Trumpet_muted_staccato_MF_D5_RR1.opus
</region>

<region>
hivel=86
key=E4
lovel=43
offset=683
sample=Trumpet_muted_staccato_MF_E4_RR1.opus
</region>

<region>
hivel=86
key=E5
lovel=43
offset=2683
sample=Trumpet_muted_staccato_MF_E5_RR1.opus
</region>

<region>
hikey=F#4
hivel=86
lokey=F4
lovel=43
offset=1618
pitch_keycenter=F4
sample=Trumpet_muted_staccato_MF_F4_RR1.opus
</region>

<region>
hikey=F#5
hivel=86
lokey=F5
lovel=43
offset=2644
pitch_keycenter=F5
sample=Trumpet_muted_staccato_MF_F5_RR1.opus
</region>

<region>
hikey=A3
hivel=86
lokey=G#3
lovel=43
pitch_keycenter=G#3
sample=Trumpet_muted_staccato_MF_G#3_RR1.opus
</region>

<region>
hikey=G#4
hivel=86
lokey=G4
lovel=43
offset=3142
pitch_keycenter=G4
sample=Trumpet_muted_staccato_MF_G4_RR1.opus
</region>

<region>
hikey=G#5
hivel=86
lokey=G5
lovel=43
offset=4118
pitch_keycenter=G5
sample=Trumpet_muted_staccato_MF_G5_RR1.opus
</region>

<region>
hikey=B3
hivel=42
lokey=A#3
lovel=0
offset=3116
pitch_keycenter=A#3
sample=Trumpet_muted_staccato_PP_A#3_RR1.opus
</region>

<region>
hikey=B4
hivel=42
lokey=A#4
lovel=0
pitch_keycenter=A#4
sample=Trumpet_muted_staccato_PP_A#4_RR1.opus
</region>

<region>
hikey=B5
hivel=42
lokey=A#5
lovel=0
offset=1784
pitch_keycenter=A#5
sample=Trumpet_muted_staccato_PP_A#5_RR1.opus
</region>

<region>
hivel=42
key=A4
lovel=0
offset=3991
sample=Trumpet_muted_staccato_PP_A4_RR1.opus
</region>

<region>
hivel=42
key=A5
lovel=0
offset=2544
sample=Trumpet_muted_staccato_PP_A5_RR1.opus
</region>

<region>
hikey=C#4
hivel=42
lokey=C4
lovel=0
offset=3504
sample=Trumpet_muted_staccato_PP_C4_RR1.opus
</region>

<region>
hikey=C#5
hivel=42
lokey=C5
lovel=0
offset=592
pitch_keycenter=C5
sample=Trumpet_muted_staccato_PP_C5_RR1.opus
</region>

<region>
hikey=F6
hivel=42
lokey=C6
lovel=0
pitch_keycenter=C6
sample=Trumpet_muted_staccato_PP_C6_RR1.opus
</region>

<region>
hikey=D#4
hivel=42
lokey=D4
lovel=0
offset=342
pitch_keycenter=D4
sample=Trumpet_muted_staccato_PP_D4_RR1.opus
</region>

<region>
hikey=D#5
hivel=42
lokey=D5
lovel=0
pitch_keycenter=D5
sample=Trumpet_muted_staccato_PP_D5_RR1.opus
</region>

<region>
hivel=42
key=E4
lovel=0
offset=315
sample=Trumpet_muted_staccato_PP_E4_RR1.opus
</region>

<region>
hivel=42
key=E5
lovel=0
sample=Trumpet_muted_staccato_PP_E5_RR1.opus
</region>

<region>
hikey=F#4
hivel=42
lokey=F4
lovel=0
offset=3452
pitch_keycenter=F4
sample=Trumpet_muted_staccato_PP_F4_RR1.opus
</region>

<region>
hikey=F#5
hivel=42
lokey=F5
lovel=0
offset=2893
pitch_keycenter=F5
sample=Trumpet_muted_staccato_PP_F5_RR1.opus
</region>

<region>
hikey=A3
hivel=42
lokey=G#3
lovel=0
offset=884
pitch_keycenter=G#3
sample=Trumpet_muted_staccato_PP_G#3_RR1.opus
</region>

<region>
hikey=G#4
hivel=42
lokey=G4
lovel=0
pitch_keycenter=G4
sample=Trumpet_muted_staccato_PP_G4_RR1.opus
</region>

<region>
hikey=G#5
hivel=42
lokey=G5
lovel=0
offset=2297
pitch_keycenter=G5
sample=Trumpet_muted_staccato_PP_G5_RR1.opus
</region>
</group>

<group>
group_label=RR2
seq_length=2
seq_position=2

<region>
hikey=B3
hivel=127
lokey=A#3
lovel=87
offset=2503
pitch_keycenter=A#3
sample=Trumpet_muted_staccato_FF_A#3_RR2.opus
</region>

<region>
hikey=B4
hivel=127
lokey=A#4
lovel=87
offset=1937
pitch_keycenter=A#4
sample=Trumpet_muted_staccato_FF_A#4_RR2.opus
</region>

<region>
hikey=B5
hivel=127
lokey=A#5
lovel=87
pitch_keycenter=A#5
sample=Trumpet_muted_staccato_FF_A#5_RR2.opus
</region>

<region>
hivel=127
key=A4
lovel=87
offset=1924
sample=Trumpet_muted_staccato_FF_A4_RR2.opus
</region>

<region>
hivel=127
key=A5
lovel=87
sample=Trumpet_muted_staccato_FF_A5_RR2.opus
</region>

<region>
hikey=C#4
hivel=127
lokey=C4
lovel=87
offset=1712
sample=Trumpet_muted_staccato_FF_C4_RR2.opus
</region>

<region>
hikey=C#5
hivel=127
lokey=C5
lovel=87
pitch_keycenter=C5
sample=Trumpet_muted_staccato_FF_C5_RR2.opus
</region>

<region>
hikey=F6
hivel=127
lokey=C6
lovel=87
pitch_keycenter=C6
sample=Trumpet_muted_staccato_FF_C6_RR2.opus
</region>

<region>
hikey=D#4
hivel=127
lokey=D4
lovel=87
offset=1999
pitch_keycenter=D4
sample=Trumpet_muted_staccato_FF_D4_RR2.opus
</region>

<region>
hikey=D#5
hivel=127
lokey=D5
lovel=87
offset=2734
pitch_keycenter=D5
sample=Trumpet_muted_staccato_FF_D5_RR2.opus
</region>

<region>
hivel=127
key=E4
lovel=87
offset=2953
sample=Trumpet_muted_staccato_FF_E4_RR2.opus
</region>

<region>
hivel=127
key=E5
lovel=87
offset=499
sample=Trumpet_muted_staccato_FF_E5_RR2.opus
</region>

<region>
hikey=F#4
hivel=127
lokey=F4
lovel=87
offset=2719
pitch_keycenter=F4
sample=Trumpet_muted_staccato_FF_F4_RR2.opus
</region>

<region>
hikey=F#5
hivel=127
lokey=F5
lovel=87
pitch_keycenter=F5
sample=Trumpet_muted_staccato_FF_F5_RR2.opus
</region>

<region>
hikey=A3
hivel=127
lokey=G#3
lovel=87
offset=1242
pitch_keycenter=G#3
sample=Trumpet_muted_staccato_FF_G#3_RR2.opus
</region>

<region>
hikey=G#4
hivel=127
lokey=G4
lovel=87
offset=2485
pitch_keycenter=G4
sample=Trumpet_muted_staccato_FF_G4_RR2.opus
</region>

<region>
hikey=G#5
hivel=127
lokey=G5
lovel=87
pitch_keycenter=G5
sample=Trumpet_muted_staccato_FF_G5_RR2.opus
</region>

<region>
hikey=B3
hivel=86
lokey=A#3
lovel=43
offset=2566
pitch_keycenter=A#3
sample=Trumpet_muted_staccato_MF_A#3_RR2.opus
</region>

<region>
hikey=B4
hivel=86
lokey=A#4
lovel=43
offset=846
pitch_keycenter=A#4
sample=Trumpet_muted_staccato_MF_A#4_RR2.opus
</region>

<region>
hikey=B5
hivel=86
lokey=A#5
lovel=43
offset=1362
pitch_keycenter=A#5
sample=Trumpet_muted_staccato_MF_A#5_RR2.opus
</region>

<region>
hivel=86
key=A4
lovel=43
offset=2706
sample=Trumpet_muted_staccato_MF_A4_RR2.opus
</region>

<region>
hivel=86
key=A5
lovel=43
offset=3392
sample=Trumpet_muted_staccato_MF_A5_RR2.opus
</region>

<region>
hikey=C#4
hivel=86
lokey=C4
lovel=43
offset=2566
sample=Trumpet_muted_staccato_MF_C4_RR2.opus
</region>

<region>
hikey=C#5
hivel=86
lokey=C5
lovel=43
offset=2212
pitch_keycenter=C5
sample=Trumpet_muted_staccato_MF_C5_RR2.opus
</region>

<region>
hikey=F6
hivel=86
lokey=C6
lovel=43
offset=3368
pitch_keycenter=C6
sample=Trumpet_muted_staccato_MF_C6_RR2.opus
</region>

<region>
hikey=D#4
hivel=86
lokey=D4
lovel=43
offset=2707
pitch_keycenter=D4
sample=Trumpet_muted_staccato_MF_D4_RR2.opus
</region>

<region>
hikey=D#5
hivel=86
lokey=D5
lovel=43
offset=3247
pitch_keycenter=D5
sample=Trumpet_muted_staccato_MF_D5_RR2.opus
</region>

<region>
hivel=86
key=E4
lovel=43
offset=2790
sample=Trumpet_muted_staccato_MF_E4_RR2.opus
</region>

<region>
hivel=86
key=E5
lovel=43
offset=1995
sample=Trumpet_muted_staccato_MF_E5_RR2.opus
</region>

<region>
hikey=F#4
hivel=86
lokey=F4
lovel=43
pitch_keycenter=F4
sample=Trumpet_muted_staccato_MF_F4_RR2.opus
</region>

<region>
hikey=F#5
hivel=86
lokey=F5
lovel=43
offset=3066
pitch_keycenter=F5
sample=Trumpet_muted_staccato_MF_F5_RR2.opus
</region>

<region>
hikey=A3
hivel=86
lokey=G#3
lovel=43
offset=1194
pitch_keycenter=G#3
sample=Trumpet_muted_staccato_MF_G#3_RR2.opus
</region>

<region>
hikey=G#4
hivel=86
lokey=G4
lovel=43
offset=2973
pitch_keycenter=G4
sample=Trumpet_muted_staccato_MF_G4_RR2.opus
</region>

<region>
hikey=G#5
hivel=86
lokey=G5
lovel=43
offset=1198
pitch_keycenter=G5
sample=Trumpet_muted_staccato_MF_G5_RR2.opus
</region>

<region>
hikey=B3
hivel=42
lokey=A#3
lovel=0
offset=4328
pitch_keycenter=A#3
sample=Trumpet_muted_staccato_PP_A#3_RR2.opus
</region>

<region>
hikey=B4
hivel=42
lokey=A#4
lovel=0
pitch_keycenter=A#4
sample=Trumpet_muted_staccato_PP_A#4_RR2.opus
</region>

<region>
hikey=B5
hivel=42
lokey=A#5
lovel=0
pitch_keycenter=A#5
sample=Trumpet_muted_staccato_PP_A#5_RR2.opus
</region>

<region>
hivel=42
key=A4
lovel=0
offset=3339
sample=Trumpet_muted_staccato_PP_A4_RR2.opus
</region>

<region>
hivel=42
key=A5
lovel=0
offset=704
sample=Trumpet_muted_staccato_PP_A5_RR2.opus
</region>

<region>
hikey=C#4
hivel=42
lokey=C4
lovel=0
offset=2677
sample=Trumpet_muted_staccato_PP_C4_RR2.opus
</region>

<region>
hikey=C#5
hivel=42
lokey=C5
lovel=0
offset=192
pitch_keycenter=C5
sample=Trumpet_muted_staccato_PP_C5_RR2.opus
</region>

<region>
hikey=F6
hivel=42
lokey=C6
lovel=0
offset=2251
pitch_keycenter=C6
sample=Trumpet_muted_staccato_PP_C6_RR2.opus
</region>

<region>
hikey=D#4
hivel=42
lokey=D4
lovel=0
pitch_keycenter=D4
sample=Trumpet_muted_staccato_PP_D4_RR2.opus
</region>

<region>
hikey=D#5
hivel=42
lokey=D5
lovel=0
offset=2615
pitch_keycenter=D5
sample=Trumpet_muted_staccato_PP_D5_RR2.opus
</region>

<region>
hivel=42
key=E4
lovel=0
sample=Trumpet_muted_staccato_PP_E4_RR2.opus
</region>

<region>
hivel=42
key=E5
lovel=0
sample=Trumpet_muted_staccato_PP_E5_RR2.opus
</region>

<region>
hikey=F#4
hivel=42
lokey=F4
lovel=0
offset=2574
pitch_keycenter=F4
sample=Trumpet_muted_staccato_PP_F4_RR2.opus
</region>

<region>
hikey=F#5
hivel=42
lokey=F5
lovel=0
offset=2664
pitch_keycenter=F5
sample=Trumpet_muted_staccato_PP_F5_RR2.opus
</region>

<region>
hikey=A3
hivel=42
lokey=G#3
lovel=0
offset=1184
pitch_keycenter=G#3
sample=Trumpet_muted_staccato_PP_G#3_RR2.opus
</region>

<region>
hikey=G#4
hivel=42
lokey=G4
lovel=0
offset=3313
pitch_keycenter=G4
sample=Trumpet_muted_staccato_PP_G4_RR2.opus
</region>

<region>
hikey=G#5
hivel=42
lokey=G5
lovel=0
pitch_keycenter=G5
sample=Trumpet_muted_staccato_PP_G5_RR2.opus
</region>
</group>